<?xml version="1.0" encoding="UTF-8" standalone="no"?>
<!-- Generator: Adobe Illustrator 16.0.0, SVG Export Plug-In . SVG Version: 6.00 Build 0)  -->

<svg
   xmlns:dc="http://purl.org/dc/elements/1.1/"
   xmlns:cc="http://creativecommons.org/ns#"
   xmlns:rdf="http://www.w3.org/1999/02/22-rdf-syntax-ns#"
   xmlns:svg="http://www.w3.org/2000/svg"
   xmlns="http://www.w3.org/2000/svg"
   xmlns:sodipodi="http://sodipodi.sourceforge.net/DTD/sodipodi-0.dtd"
   xmlns:inkscape="http://www.inkscape.org/namespaces/inkscape"
   version="1.1"
   id="Layer_1"
   x="0px"
   y="0px"
   width="135px"
   height="135px"
   viewBox="0 0 135 135"
   style="enable-background:new 0 0 135 135;"
   xml:space="preserve"
   sodipodi:docname="pikachupetit.svg"
   inkscape:version="0.92.4 (33fec40, 2019-01-16)"><metadata
   id="metadata181"><rdf:RDF><cc:Work
       rdf:about=""><dc:format>image/svg+xml</dc:format><dc:type
         rdf:resource="http://purl.org/dc/dcmitype/StillImage" /><dc:title></dc:title></cc:Work></rdf:RDF></metadata><defs
   id="defs179" /><sodipodi:namedview
   pagecolor="#ffffff"
   bordercolor="#666666"
   borderopacity="1"
   objecttolerance="10"
   gridtolerance="10"
   guidetolerance="10"
   inkscape:pageopacity="0"
   inkscape:pageshadow="2"
   inkscape:window-width="1533"
   inkscape:window-height="845"
   id="namedview177"
   showgrid="false"
   inkscape:zoom="1.7481481"
   inkscape:cx="67.5"
   inkscape:cy="67.5"
   inkscape:window-x="67"
   inkscape:window-y="27"
   inkscape:window-maximized="1"
   inkscape:current-layer="Layer_1" />
<style
   type="text/css"
   id="style2">
<![CDATA[
	.st0{fill:#465652;}
	.st1{fill:#AAB9BA;}
	.st2{fill:#47C67B;}
	.st3{fill:#AAC8D1;}
	.st4{fill:none;stroke:#E83834;stroke-width:6;stroke-linecap:round;stroke-linejoin:round;stroke-miterlimit:10;}
	.st5{fill:#7BC67B;}
	.st6{fill:#7BC7FF;}
	.st7{fill:#7C34C1;}
	.st8{fill:#7C8D96;}
	.st9{fill:#AD2707;}
	.st10{fill:#ADB8BC;}
	.st11{fill:#107510;}
	.st12{fill:#7FE5D8;}
	.st13{fill:#AF4AD1;}
	.st14{fill:#E02B7E;}
	.st15{fill:#E04038;}
	.st16{fill:#AFD7DD;}
	.st17{fill:#E0A010;}
	.st18{fill:#E0D5A4;}
	.st19{fill:#12B2B2;}
	.st20{fill:#12D66B;}
	.st21{fill:#E1A9FF;}
	.st22{fill:#1362A8;}
	.st23{fill:#E2378D;}
	.st24{fill:#E29C37;}
	.st25{fill:#E2B90E;}
	.st26{fill:#E2BF91;}
	.st27{fill:#E2CBAA;}
	.st28{fill:#14A594;}
	.st29{fill:#E4E9ED;}
	.st30{fill:#4A5D60;}
	.st31{fill:#E5B076;}
	.st32{fill:#E5B1C4;}
	.st33{fill:#E5E4C3;}
	.st34{fill:#4B6466;}
	.st35{fill:#E6FF2E;}
	.st36{fill:#18AA67;}
	.st37{fill:#E86207;}
	.st38{fill:#E8A113;}
	.st39{fill:#E8B5A6;}
	.st40{fill:#E8E8ED;}
	.st41{fill:#4E5154;}
	.st42{fill:#E9F1F4;}
	.st43{fill:#4F4B48;}
	.st44{fill:#4F74E8;}
	.st45{fill:#808E93;}
	.st46{fill:#80949B;}
	.st47{fill:#80EDAC;}
	.st48{fill:#B122E0;}
	.st49{fill:#B2C4CC;}
	.st50{fill:#83D839;}
	.st51{fill:#B3C6C6;}
	.st52{fill:none;stroke:#33363A;stroke-width:3;stroke-linecap:round;stroke-linejoin:round;stroke-miterlimit:10;}
	.st53{fill:#1A8E1C;}
	.st54{fill:#1A93D6;}
	.st55{fill:#B50B0B;}
	.st56{fill:#1AD88F;}
	.st57{fill:#B5DAF4;}
	.st58{fill:#EA7B1F;}
	.st59{fill:#EA81BD;}
	.st60{fill:#87B8D6;}
	.st61{fill:#87C3F4;}
	.st62{fill:#EAC79D;}
	.st63{fill:#EADF11;}
	.st64{fill:#EAE4C5;}
	.st65{fill:#B78094;}
	.st66{fill:#8844D8;}
	.st67{fill:#EBF4F7;}
	.st68{fill:#893015;}
	.st69{fill:#89410B;}
	.st70{fill:#899BA3;}
	.st71{fill:#EDE3B9;}
	.st72{enable-background:new    ;}
	.st73{fill:#50FF9F;}
	.st74{fill:#EEDCF4;}
	.st75{fill:#EFA37D;}
	.st76{fill:#EFA3CC;}
	.st77{fill:#EFC99A;}
	.st78{fill:#54AF79;}
	.st79{fill:#BA503A;}
	.st80{fill:#BA8663;}
	.st81{fill:#8B4FE0;}
	.st82{fill:#58ED9B;}
	.st83{fill:#BC7DFF;}
	.st84{fill:#8D9AA3;}
	.st85{fill:#BCCAD3;}
	.st86{fill:#8DE4FF;}
	.st87{fill:#20B518;}
	.st88{fill:#BF44F2;}
	.st89{fill:#21CEA1;}
	.st90{fill:#BFDAE0;}
	.st91{fill:#F0FBFC;}
	.st92{fill:#F2D9A7;}
	.st93{fill:#F2EAC9;}
	.st94{fill:#24D1AF;}
	.st95{fill:#25931C;}
	.st96{fill:#F4C4B3;}
	.st97{fill:#F4D3A2;}
	.st98{fill:#F4D647;}
	.st99{fill:#F4D7B8;}
	.st100{fill:#F4EC8E;}
	.st101{fill:#5B524D;}
	.st102{fill:#F77819;}
	.st103{fill:#F79AE1;}
	.st104{fill:#5E707A;}
	.st105{fill:#F93585;}
	.st106{fill:#F95D5D;}
	.st107{fill:#F9C19B;}
	.st108{fill:#F9CB58;}
	.st109{fill:#F9D2B2;}
	.st110{fill:#F9F07D;}
	.st111{fill:#F9F1D2;}
	.st112{fill:#F9F4B7;}
	.st113{fill:#F9F9E4;}
	.st114{fill:#5F1DAA;}
	.st115{fill:#5F9AD6;}
	.st116{fill:#C0C0C4;}
	.st117{fill:#91EA57;}
	.st118{fill:#C12727;}
	.st119{fill:#C191A0;}
	.st120{fill:#923BB7;}
	.st121{fill:#93A0A3;}
	.st122{fill:#93F9EA;}
	.st123{fill:#93FF5A;}
	.st124{fill:#C4833D;}
	.st125{fill:#95A2A5;}
	.st126{fill:#965514;}
	.st127{fill:#96562C;}
	.st128{fill:#2AF42F;}
	.st129{fill:#C5D7DD;}
	.st130{fill:#C68510;}
	.st131{fill:#C6A86D;}
	.st132{fill:#C6BB8D;}
	.st133{fill:#2C9DCE;}
	.st134{fill:#FBFCF2;}
	.st135{fill:#FC70B0;}
	.st136{fill:#FCE6C8;}
	.st137{fill:#FCF7E3;}
	.st138{fill:#C90D6B;}
	.st139{fill:#FDFEFF;}
	.st140{fill:#FDFFDC;}
	.st141{fill:#FF1A1A;}
	.st142{fill:#FF5252;}
	.st143{fill:#FF5B00;}
	.st144{fill:#FF6155;}
	.st145{fill:#FF630D;}
	.st146{fill:#FF6666;}
	.st147{fill:#FF7676;}
	.st148{fill:#FF7900;}
	.st149{fill:#FF860D;}
	.st150{fill:#FF8B00;}
	.st151{fill:#FF8F8F;}
	.st152{fill:#FF900B;}
	.st153{fill:#FF908A;}
	.st154{fill:#FF960B;}
	.st155{fill:#FF9C0D;}
	.st156{fill:#FFA9D4;}
	.st157{fill:#FFAA00;}
	.st158{fill:#FFAD40;}
	.st159{fill:#FFAF10;}
	.st160{fill:#FFB000;}
	.st161{fill:#FFBE08;}
	.st162{fill:#FFBF31;}
	.st163{fill:#FFC200;}
	.st164{fill:#FFCAE8;}
	.st165{fill:#FFCCF5;}
	.st166{fill:#FFD00B;}
	.st167{fill:#FFD039;}
	.st168{fill:#FFD400;}
	.st169{fill:#FFD833;}
	.st170{fill:#FFDB80;}
	.st171{fill:#FFDDD2;}
	.st172{fill:#FFE6D4;}
	.st173{fill:#FFE6EB;}
	.st174{fill:#FFE98D;}
	.st175{fill:#FFECD2;}
	.st176{fill:#FFF1D9;}
	.st177{fill:#FFF24D;}
	.st178{fill:#FFF3C2;}
	.st179{fill:#FFF4C7;}
	.st180{fill:#FFF800;}
	.st181{fill:#FFF80D;}
	.st182{fill:#FFF9DE;}
	.st183{fill:#FFFBD7;}
	.st184{fill:#FFFBEB;}
	.st185{fill:#FFFCC0;}
	.st186{fill:#FFFCDC;}
	.st187{fill:#FFFFFA;}
	.st188{fill:#FFFFFF;}
	.st189{fill:#63797F;}
	.st190{fill:#65E529;}
	.st191{fill:#66310E;}
	.st192{fill:#663C17;}
	.st193{fill:#9A5AE5;}
	.st194{fill:#CA30EF;}
	.st195{fill:#6892FC;}
	.st196{fill:#9CFFC4;}
	.st197{fill:#CC4306;}
	.st198{fill:#CC549E;}
	.st199{fill:#9E3256;}
	.st200{fill:#CDFFBB;}
	.st201{fill:#CE86AF;}
	.st202{fill:#CED9DD;}
	
		.st203{fill:none;stroke:#33363A;stroke-width:3;stroke-linecap:round;stroke-linejoin:round;stroke-miterlimit:10;stroke-dasharray:6;}
	.st204{fill:#CFE1E2;}
	.st205{fill:#33363A;}
	.st206{fill:#34C166;}
	.st207{fill:#364B5B;}
	.st208{fill:#3662CE;}
	.st209{fill:#36C6FF;}
	.st210{fill:#6ADB9A;}
	.st211{fill:#6D5C4D;}
	.st212{fill:#6EBDF9;}
	.st213{fill:#0031FF;}
	.st214{fill:#0062FF;}
	.st215{fill:#0068FF;}
	.st216{fill:#0086FF;}
	.st217{fill:#009BE8;}
	.st218{fill:#00AAFF;}
	.st219{fill:#D271FF;}
	.st220{fill:#D363A9;}
	.st221{fill:#D3964C;}
	.st222{fill:#D3DFE2;}
	.st223{fill:#D3E0E2;}
	.st224{fill:#D3EFF4;}
	.st225{fill:#063B66;}
	.st226{fill:#D60909;}
	.st227{fill:#D61D1D;}
	.st228{fill:#D7F0FF;}
	.st229{fill:#09B285;}
	.st230{fill:#D8D593;}
	.st231{fill:#D8E2EA;}
	.st232{fill:#D8E5EA;}
	.st233{fill:#3E5054;}
	.st234{fill:#D988FF;}
	.st235{fill:#D9E7E8;}
	.st236{fill:#702252;}
	.st237{fill:#70D3E0;}
	.st238{fill:#A02FF2;}
	.st239{fill:#A2F255;}
	.st240{fill:#A35616;}
	.st241{fill:#A3CCCC;}
	.st242{fill:#0A6ADD;}
	.st243{fill:#A5145D;}
	.st244{fill:#A57555;}
	.st245{fill:#77D6FC;}
	.st246{fill:#7815CE;}
	.st247{fill:#A7BBC1;}
	.st248{fill:#DBD279;}
	.st249{fill:#0D5C9E;}
	.st250{fill:#A83C11;}
	.st251{fill:#A8633D;}
	.st252{fill:#A8A3E5;}
	.st253{fill:#DCE6EA;}
	.st254{fill:#DCE7EA;}
	.st255{fill:#A962E8;}
	.st256{fill:#DD2466;}
	.st257{fill:#DDC38A;}
	.st258{fill:#DDD2B1;}
	.st259{fill:#DFE7E8;}
	.st260{fill:#42B1E8;}
	.st261{fill:#436377;}
	.st262{fill:#43B530;}
]]>
</style>
<g
   id="g174"
   transform="matrix(-0.14304984,0,0,0.14304984,29.677355,8.6492207)">
	<g
   id="g16">
		<g
   id="g6">
			<polygon
   class="st168"
   points="53.975,34.675 65.614,34.675 50.344,65.7 90.474,29.792 77.437,29.792 94.294,9.536 68.299,9.536 "
   id="polygon4"
   style="fill:#ffd400" />
		</g>
		<g
   id="g10">
			<polygon
   class="st160"
   points="65.614,34.675 50.344,65.7 80.733,38.507 70.604,38.507 77.856,29.792 77.437,29.792 87.04,18.251 63.333,18.251 53.975,34.675 "
   id="polygon8"
   style="fill:#ffb000" />
		</g>
		<g
   id="g14">
			<path
   class="st205"
   d="m 50.344,67.2 c -0.318,0 -0.638,-0.101 -0.906,-0.305 -0.572,-0.435 -0.757,-1.213 -0.439,-1.857 L 63.205,36.175 h -9.229 c -0.534,0 -1.028,-0.284 -1.297,-0.746 -0.269,-0.462 -0.271,-1.032 -0.007,-1.496 L 66.995,8.794 C 67.263,8.325 67.76,8.036 68.299,8.036 h 25.995 c 0.582,0 1.111,0.337 1.358,0.863 0.247,0.527 0.167,1.149 -0.205,1.597 l -14.81,17.796 h 9.837 c 0.622,0 1.18,0.384 1.401,0.965 0.221,0.581 0.062,1.238 -0.401,1.653 l -40.13,35.908 c -0.283,0.254 -0.642,0.382 -1,0.382 z m 6.212,-34.025 h 9.059 c 0.519,0 1,0.268 1.273,0.707 0.273,0.44 0.301,0.99 0.072,1.455 L 55.102,59.43 86.548,31.292 h -9.111 c -0.582,0 -1.111,-0.337 -1.358,-0.863 -0.247,-0.527 -0.167,-1.149 0.205,-1.597 L 91.095,11.036 H 69.171 Z"
   id="path12"
   inkscape:connector-curvature="0"
   style="fill:#33363a" />
		</g>
	</g>
	<g
   id="g172">
		<g
   id="g38">
			<g
   id="g20">
				<path
   class="st180"
   d="m 116.709,88.022 c 0,20.676 -22.032,37.441 -49.209,37.441 -27.178,0 -49.209,-16.766 -49.209,-37.441 0,-20.68 22.031,-45.459 49.209,-45.459 27.177,0 49.209,24.78 49.209,45.459 z"
   id="path18"
   inkscape:connector-curvature="0"
   style="fill:#fff800" />
			</g>
			<g
   id="g24">
				<path
   class="st168"
   d="m 116.709,88.022 c 0,20.676 -22.032,37.441 -49.209,37.441 -27.178,0 -49.209,-16.766 -49.209,-37.441 0,-20.68 22.031,-34.928 49.209,-34.928 27.177,10e-4 49.209,14.249 49.209,34.928 z"
   id="path22"
   inkscape:connector-curvature="0"
   style="fill:#ffd400" />
			</g>
			<g
   id="g28">
				<path
   class="st180"
   d="m 77.979,78.224 c 0,1.393 -4.691,1.643 -10.479,1.643 -5.788,0 -10.479,-0.25 -10.479,-1.643 0,-1.395 4.691,-5.037 10.479,-5.037 5.788,0 10.479,3.642 10.479,5.037 z"
   id="path26"
   inkscape:connector-curvature="0"
   style="fill:#fff800" />
			</g>
			<g
   id="g32">
				<path
   class="st160"
   d="m 116.709,88.022 c 0,20.676 -22.032,37.441 -49.209,37.441 -27.178,0 -49.209,-16.766 -49.209,-37.441 0,-20.682 6.261,18.34 49.209,18.34 42.948,0 49.209,-39.021 49.209,-18.34 z"
   id="path30"
   inkscape:connector-curvature="0"
   style="fill:#ffb000" />
			</g>
			<g
   id="g36">
				<path
   class="st205"
   d="m 67.5,126.964 c -27.961,0 -50.709,-17.469 -50.709,-38.941 0,-21.27 22.619,-46.959 50.709,-46.959 13.041,0 25.772,5.472 35.849,15.406 9.305,9.174 14.86,20.97 14.86,31.553 0,21.472 -22.748,38.941 -50.709,38.941 z m 0,-82.901 c -26.428,0 -47.709,24.048 -47.709,43.959 0,19.818 21.402,35.941 47.709,35.941 26.307,0 47.709,-16.123 47.709,-35.941 0,-19.911 -21.281,-43.959 -47.709,-43.959 z"
   id="path34"
   inkscape:connector-curvature="0"
   style="fill:#33363a" />
			</g>
		</g>
		<g
   id="g80">
			<g
   id="g58">
				<g
   id="g56">
					<g
   id="g42">
						<path
   class="st168"
   d="M 12.807,50.882 C 19.192,61.423 28.138,67.62 36.792,68.693 38.284,57.939 35.92,45.461 29.534,34.92 23.148,24.376 14.202,18.179 5.549,17.11 4.057,27.86 6.421,40.341 12.807,50.882 Z"
   id="path40"
   inkscape:connector-curvature="0"
   style="fill:#ffd400" />
					</g>
					<g
   id="g46">
						<path
   class="st160"
   d="m 5.549,17.11 c -1.492,10.75 0.872,23.23 7.258,33.771 6.385,10.541 15.331,16.738 23.985,17.811 z"
   id="path44"
   inkscape:connector-curvature="0"
   style="fill:#ffb000" />
					</g>
					<g
   id="g50">
						<path
   class="st205"
   d="m 28.453,67.597 c -0.227,0 -0.455,-0.051 -0.671,-0.159 C 21.484,64.282 15.862,58.826 11.523,51.66 5.171,41.175 2.452,28.507 4.063,16.905 c 0.112,-0.812 0.853,-1.383 1.669,-1.282 9.525,1.176 18.668,7.926 25.085,18.52 3.786,6.25 6.338,13.43 7.379,20.764 0.116,0.82 -0.454,1.58 -1.274,1.696 -0.817,0.11 -1.579,-0.454 -1.696,-1.274 C 34.242,48.392 31.83,41.604 28.251,35.698 22.656,26.461 14.926,20.394 6.851,18.836 c -1.089,10.51 1.514,21.819 7.239,31.268 4.046,6.683 9.245,11.748 15.036,14.651 0.741,0.371 1.04,1.272 0.669,2.013 -0.263,0.526 -0.792,0.829 -1.342,0.829 z"
   id="path48"
   inkscape:connector-curvature="0"
   style="fill:#33363a" />
					</g>
					<g
   id="g54">
						<path
   class="st205"
   d="M 21.672,25.169 C 16.668,20.55 11.05,17.79 5.549,17.11 4.516,24.56 5.337,32.839 8.061,40.726 14.7,38.673 23.482,44.196 21.672,25.169 Z"
   id="path52"
   inkscape:connector-curvature="0"
   style="fill:#33363a" />
					</g>
				</g>
			</g>
			<g
   id="g78">
				<g
   id="g76">
					<g
   id="g62">
						<path
   class="st168"
   d="m 122.193,50.882 c -6.385,10.541 -15.331,16.738 -23.985,17.811 -1.492,-10.754 0.871,-23.232 7.258,-33.773 6.386,-10.543 15.332,-16.74 23.986,-17.809 1.491,10.749 -0.872,23.23 -7.259,33.771 z"
   id="path60"
   inkscape:connector-curvature="0"
   style="fill:#ffd400" />
					</g>
					<g
   id="g66">
						<path
   class="st160"
   d="m 129.452,17.11 c 1.491,10.75 -0.872,23.23 -7.259,33.771 -6.385,10.541 -15.331,16.738 -23.985,17.811 z"
   id="path64"
   inkscape:connector-curvature="0"
   style="fill:#ffb000" />
					</g>
					<g
   id="g70">
						<path
   class="st205"
   d="m 106.547,67.597 c -0.55,0 -1.079,-0.303 -1.342,-0.828 -0.371,-0.74 -0.072,-1.642 0.669,-2.013 5.789,-2.901 10.988,-7.968 15.036,-14.651 5.725,-9.447 8.328,-20.758 7.24,-31.271 -8.076,1.559 -15.807,7.625 -21.401,16.862 -3.579,5.909 -5.991,12.697 -6.974,19.631 -0.116,0.819 -0.864,1.389 -1.696,1.274 -0.82,-0.116 -1.391,-0.876 -1.274,-1.696 1.039,-7.33 3.591,-14.511 7.378,-20.764 6.417,-10.594 15.561,-17.344 25.086,-18.52 0.812,-0.1 1.557,0.47 1.669,1.282 1.61,11.604 -1.109,24.271 -7.461,34.755 -4.341,7.167 -9.963,12.623 -16.259,15.778 -0.216,0.11 -0.446,0.161 -0.671,0.161 z"
   id="path68"
   inkscape:connector-curvature="0"
   style="fill:#33363a" />
					</g>
					<g
   id="g74">
						<path
   class="st205"
   d="m 113.328,25.169 c 5.005,-4.619 10.622,-7.379 16.124,-8.059 1.033,7.449 0.212,15.729 -2.512,23.615 -6.64,-2.052 -15.423,3.471 -13.612,-15.556 z"
   id="path72"
   inkscape:connector-curvature="0"
   style="fill:#33363a" />
					</g>
				</g>
			</g>
		</g>
		<g
   id="g98">
			<g
   id="g84">
				<circle
   class="st141"
   cx="36.499001"
   cy="91.384003"
   r="7.013"
   id="circle82"
   style="fill:#ff1a1a" />
			</g>
			<g
   id="g88">
				<path
   class="st227"
   d="m 43.512,91.384 c 0,3.871 -3.14,7.012 -7.013,7.012 -3.874,0 -7.014,-3.141 -7.014,-7.012"
   id="path86"
   inkscape:connector-curvature="0"
   style="fill:#d61d1d" />
			</g>
			<g
   id="g92">
				<circle
   class="st141"
   cx="98.500999"
   cy="91.384003"
   r="7.0139999"
   id="circle90"
   style="fill:#ff1a1a" />
			</g>
			<g
   id="g96">
				<path
   class="st227"
   d="m 105.515,91.384 c 0,3.871 -3.141,7.012 -7.014,7.012 -3.873,0 -7.014,-3.141 -7.014,-7.012"
   id="path94"
   inkscape:connector-curvature="0"
   style="fill:#d61d1d" />
			</g>
		</g>
		<g
   id="g170">
			<g
   id="g104">
				<polygon
   class="st205"
   points="71.419,80.823 63.582,80.823 67.5,82.784 "
   id="polygon100"
   style="fill:#33363a" />
				<path
   class="st205"
   d="m 67.5,84.284 c -0.23,0 -0.46,-0.053 -0.671,-0.158 l -3.918,-1.961 c -0.622,-0.312 -0.949,-1.01 -0.789,-1.687 0.16,-0.677 0.765,-1.155 1.46,-1.155 h 7.837 c 0.695,0 1.3,0.479 1.46,1.155 0.16,0.676 -0.167,1.375 -0.789,1.687 l -3.919,1.961 C 67.96,84.231 67.73,84.284 67.5,84.284 Z"
   id="path102"
   inkscape:connector-curvature="0"
   style="fill:#33363a" />
			</g>
			<g
   id="g114">
				<g
   id="g108">
					<path
   class="st205"
   d="m 63.41,90.978 h -1.457 c -3.083,0 -5.591,-2.507 -5.591,-5.588 0,-0.828 0.672,-1.5 1.5,-1.5 0.828,0 1.5,0.672 1.5,1.5 0,1.427 1.162,2.588 2.591,2.588 h 1.457 c 1.428,0 2.589,-1.161 2.589,-2.588 v -1.455 c 0,-0.828 0.672,-1.5 1.5,-1.5 0.828,0 1.5,0.672 1.5,1.5 v 1.455 c 0,3.081 -2.507,5.588 -5.589,5.588 z"
   id="path106"
   inkscape:connector-curvature="0"
   style="fill:#33363a" />
				</g>
				<g
   id="g112">
					<path
   class="st205"
   d="m 73.047,90.978 h -1.456 c -3.082,0 -5.59,-2.507 -5.59,-5.588 v -1.455 c 0,-0.828 0.672,-1.5 1.5,-1.5 0.828,0 1.5,0.672 1.5,1.5 v 1.455 c 0,1.427 1.162,2.588 2.59,2.588 h 1.456 c 1.429,0 2.591,-1.161 2.591,-2.588 0,-0.828 0.672,-1.5 1.5,-1.5 0.828,0 1.5,0.672 1.5,1.5 0,3.081 -2.508,5.588 -5.591,5.588 z"
   id="path110"
   inkscape:connector-curvature="0"
   style="fill:#33363a" />
				</g>
			</g>
			<g
   id="g168">
				<g
   id="g140">
					<g
   id="g128">
						<g
   id="g118">
							<path
   class="st211"
   d="m 51.338,73.753 c 0,4.449 -3.605,8.051 -8.053,8.051 -4.446,0 -8.051,-3.602 -8.051,-8.051 0,-4.447 3.604,-8.053 8.051,-8.053 4.447,0 8.053,3.606 8.053,8.053 z"
   id="path116"
   inkscape:connector-curvature="0"
   style="fill:#6d5c4d" />
						</g>
						<g
   id="g122">
							<path
   class="st205"
   d="m 51.338,73.753 c 0,4.449 -3.605,1.662 -8.053,1.662 -4.446,0 -8.051,2.787 -8.051,-1.662 0,-4.447 3.604,-8.053 8.051,-8.053 4.447,0 8.053,3.606 8.053,8.053 z"
   id="path120"
   inkscape:connector-curvature="0"
   style="fill:#33363a" />
						</g>
						<g
   id="g126">
							<path
   class="st205"
   d="m 43.285,83.304 c -5.267,0 -9.551,-4.284 -9.551,-9.551 0,-5.268 4.284,-9.553 9.551,-9.553 5.268,0 9.553,4.285 9.553,9.553 0,5.267 -4.285,9.551 -9.553,9.551 z m 0,-16.104 c -3.612,0 -6.551,2.939 -6.551,6.553 0,3.612 2.938,6.551 6.551,6.551 3.613,0 6.553,-2.938 6.553,-6.551 0,-3.613 -2.94,-6.553 -6.553,-6.553 z"
   id="path124"
   inkscape:connector-curvature="0"
   style="fill:#33363a" />
						</g>
					</g>
					<g
   id="g138">
						<g
   id="g132">
							<circle
   class="st188"
   cx="39.282001"
   cy="71.136002"
   r="3.2809999"
   id="circle130"
   style="fill:#ffffff" />
						</g>
						<g
   id="g136">
							<path
   class="st205"
   d="m 39.281,75.915 c -2.636,0 -4.78,-2.144 -4.78,-4.779 0,-2.635 2.145,-4.779 4.78,-4.779 2.637,0 4.781,2.144 4.781,4.779 0,2.635 -2.144,4.779 -4.781,4.779 z m 0,-6.559 c -0.981,0 -1.78,0.798 -1.78,1.779 0,0.981 0.799,1.779 1.78,1.779 0.982,0 1.781,-0.798 1.781,-1.779 0,-0.981 -0.798,-1.779 -1.781,-1.779 z"
   id="path134"
   inkscape:connector-curvature="0"
   style="fill:#33363a" />
						</g>
					</g>
				</g>
				<g
   id="g166">
					<g
   id="g154">
						<g
   id="g144">
							<path
   class="st211"
   d="m 99.765,73.753 c 0,4.449 -3.604,8.051 -8.051,8.051 -4.447,0 -8.052,-3.602 -8.052,-8.051 0,-4.447 3.604,-8.053 8.052,-8.053 4.446,0 8.051,3.606 8.051,8.053 z"
   id="path142"
   inkscape:connector-curvature="0"
   style="fill:#6d5c4d" />
						</g>
						<g
   id="g148">
							<path
   class="st205"
   d="m 99.765,73.753 c 0,4.449 -3.604,1.662 -8.051,1.662 -4.447,0 -8.052,2.787 -8.052,-1.662 0,-4.447 3.604,-8.053 8.052,-8.053 4.446,0 8.051,3.606 8.051,8.053 z"
   id="path146"
   inkscape:connector-curvature="0"
   style="fill:#33363a" />
						</g>
						<g
   id="g152">
							<path
   class="st205"
   d="m 91.714,83.304 c -5.267,0 -9.552,-4.284 -9.552,-9.551 0,-5.268 4.285,-9.553 9.552,-9.553 5.267,0 9.551,4.285 9.551,9.553 0,5.267 -4.285,9.551 -9.551,9.551 z m 0,-16.104 c -3.612,0 -6.552,2.939 -6.552,6.553 0,3.612 2.939,6.551 6.552,6.551 3.613,0 6.551,-2.938 6.551,-6.551 0,-3.613 -2.939,-6.553 -6.551,-6.553 z"
   id="path150"
   inkscape:connector-curvature="0"
   style="fill:#33363a" />
						</g>
					</g>
					<g
   id="g164">
						<g
   id="g158">
							<circle
   class="st188"
   cx="87.709"
   cy="71.136002"
   r="3.28"
   id="circle156"
   style="fill:#ffffff" />
						</g>
						<g
   id="g162">
							<path
   class="st205"
   d="m 87.71,75.915 c -2.637,0 -4.781,-2.144 -4.781,-4.779 0,-2.635 2.145,-4.779 4.781,-4.779 2.636,0 4.779,2.144 4.779,4.779 0,2.635 -2.143,4.779 -4.779,4.779 z m 0,-6.559 c -0.982,0 -1.781,0.798 -1.781,1.779 0,0.981 0.799,1.779 1.781,1.779 0.981,0 1.779,-0.798 1.779,-1.779 0,-0.981 -0.798,-1.779 -1.779,-1.779 z"
   id="path160"
   inkscape:connector-curvature="0"
   style="fill:#33363a" />
						</g>
					</g>
				</g>
			</g>
		</g>
	</g>
</g>
</svg>